# File created by Blade
# Date/Time:  Wed Jan 21 15:15:34 2015
#---------------------------------------------------------
:version 1.10
:name HOM
:units
  mass 1.0
  length 1.000000
  angle deg
:documentation
     Acclaim Skeleton File
:root
   axis xyz
   order TX TY TZ RX RY RZ
   position 0.000000 0.000000 0.000000
   orientation 0 0 0
:bonedata
   begin
      id 1
      name Spine_dum
      direction 0.000000 1.000000 0.000000
      length 7.067664
      axis 0.0 0.0 0.0 xyz
   end
   begin
      id 2
      name LeftUpLeg_dum
      direction 1.000000 0.000000 0.000000
      length 4.013002
      axis 0.0 0.0 0.0 xyz
   end
   begin
      id 3
      name RightUpLeg_dum
      direction -1.000000 0.000000 0.000000
      length 4.013002
      axis 0.0 0.0 0.0 xyz
   end
   begin
      id 4
      name Spine
      direction 0.000000 1.000000 0.000000
      length 0.000000
      axis 0.0 0.0 0.0 xyz
      dof rx ry rz
   end
   begin
      id 5
      name Spine_dum1
      direction 0.000000 1.000000 0.000000
      length 15.039886
      axis 0.0 0.0 0.0 xyz
   end
   begin
      id 6
      name Spine_dum2
      direction 0.000000 1.000000 0.000000
      length 10.530368
      axis 0.0 0.0 0.0 xyz
   end
   begin
      id 7
      name Spine_dum3
      direction 0.000000 1.000000 0.000000
      length 10.530368
      axis 0.0 0.0 0.0 xyz
   end
   begin
      id 8
      name Head
      direction 0.000000 1.000000 0.000000
      length 4.527550
      axis 0.0 0.0 0.0 xyz
      dof rx ry rz
   end
   begin
      id 9
      name LeftShoulder
      direction 1.000000 0.000000 0.000000
      length 7.028855
      axis 0.0 0.0 -90.0 xyz
      dof rx ry rz
   end
   begin
      id 10
      name LeftArm
      direction 1.000000 0.000000 0.000000
      length 10.797705
      axis 0.0 0.0 -90.0 xyz
      dof rx ry rz
   end
   begin
      id 11
      name LeftForeArm
      direction 1.000000 0.000000 0.000000
      length 7.907442
      axis 0.0 0.0 -90.0 xyz
      dof ry rz rx
   end
   begin
      id 12
      name LeftHand
      direction 0.000000 0.000000 0.000000
      length 0.000000
      axis 0.0 0.0 -90.0 xyz
      dof rx ry rz
   end
   begin
      id 13
      name LeftHand_dum1
      direction 0.000000 0.000000 0.000000
      length 0.000000
      axis 0.0 0.0 -90.0 xyz
   end
   begin
      id 14
      name LeftHand_dum2
      direction 1.000000 0.000000 0.000000
      length 3.937000
      axis 0.0 0.0 -90.0 xyz
   end
   begin
      id 15
      name LeftHandThumb1
      direction 0.000000 0.000000 1.000000
      length 3.937000
      axis 0.0 0.0 -90.0 xyz
      dof rx rz ry
   end
   begin
      id 16
      name RightShoulder
      direction -1.000000 0.000000 0.000000
      length 7.028855
      axis 0.0 0.0 90.0 xyz
      dof rx ry rz
   end
   begin
      id 17
      name RightArm
      direction -1.000000 0.000000 0.000000
      length 10.797705
      axis 0.0 0.0 90.0 xyz
      dof rx ry rz
   end
   begin
      id 18
      name RightForeArm
      direction -1.000000 0.000000 0.000000
      length 7.907442
      axis 0.0 0.0 90.0 xyz
      dof ry rz rx
   end
   begin
      id 19
      name RightHand
      direction 0.000000 0.000000 0.000000
      length 0.000000
      axis 0.0 0.0 90.0 xyz
      dof rx ry rz
   end
   begin
      id 20
      name RightHand_dum1
      direction 0.000000 0.000000 0.000000
      length 0.000000
      axis 0.0 0.0 90.0 xyz
   end
   begin
      id 21
      name RightHand_dum2
      direction -1.000000 0.000000 0.000000
      length 3.937000
      axis 0.0 0.0 90.0 xyz
   end
   begin
      id 22
      name RightHandThumb1
      direction 0.000000 0.000000 1.000000
      length 3.937000
      axis 0.0 0.0 90.0 xyz
      dof rx rz ry
   end
   begin
      id 23
      name LeftUpLeg
      direction 0.000000 -1.000000 0.000000
      length 16.899758
      axis 0.0 0.0 0.0 xyz
      dof rx ry rz
   end
   begin
      id 24
      name LeftLeg
      direction 0.000000 -1.000000 0.000000
      length 17.389183
      axis 0.0 0.0 0.0 xyz
      dof rx ry rz
   end
   begin
      id 25
      name LeftFoot
      direction 0.000000 -0.258819 0.965926
      length 4.924528
      axis 15.0 0.0 0.0 xyz
      dof rx ry rz
   end
   begin
      id 26
      name LeftToeBase
      direction 0.000000 0.000000 1.000000
      length 2.952750
      axis 0.0 0.0 0.0 xyz
      dof rx ry rz
   end
   begin
      id 27
      name RightUpLeg
      direction 0.000000 -1.000000 0.000000
      length 16.899758
      axis 0.0 0.0 0.0 xyz
      dof rx ry rz
   end
   begin
      id 28
      name RightLeg
      direction 0.000000 -1.000000 0.000000
      length 17.389183
      axis 0.0 0.0 0.0 xyz
      dof rx ry rz
   end
   begin
      id 29
      name RightFoot
      direction 0.000000 -0.258819 0.965926
      length 4.924528
      axis 15.0 0.0 0.0 xyz
      dof rx ry rz
   end
   begin
      id 30
      name RightToeBase
      direction 0.000000 0.000000 1.000000
      length 2.952750
      axis 0.0 0.0 0.0 xyz
      dof rx ry rz
   end
:hierarchy
   begin
      root Spine_dum LeftUpLeg_dum RightUpLeg_dum
      Spine_dum Spine
      LeftUpLeg_dum LeftUpLeg
      RightUpLeg_dum RightUpLeg
      Spine Spine_dum1 Spine_dum2 Spine_dum3
      Spine_dum1 Head
      Spine_dum2 LeftShoulder
      Spine_dum3 RightShoulder
      LeftShoulder LeftArm
      LeftArm LeftForeArm
      LeftForeArm LeftHand
      LeftHand LeftHand_dum1 LeftHand_dum2
      LeftHand_dum1 LeftHandThumb1
      RightShoulder RightArm
      RightArm RightForeArm
      RightForeArm RightHand
      RightHand RightHand_dum1 RightHand_dum2
      RightHand_dum1 RightHandThumb1
      LeftUpLeg LeftLeg
      LeftLeg LeftFoot
      LeftFoot LeftToeBase
      RightUpLeg RightLeg
      RightLeg RightFoot
      RightFoot RightToeBase
   end

# File created by Blade
# Date/Time:  Wed Jan 21 15:15:22 2015
# Frame Rate: 120.000 fps
#------------------------------------------------------
:FULLY-SPECIFIED
:DEGREES
134
root 17.510630 35.602632 -23.320131 140.803610 -88.163598 -136.858199
Spine -8.327814 0.101843 1.039232
Head 8.230028 0.079211 0.166162
LeftShoulder -9.677846 -28.459813 6.179892
LeftArm -0.913712 6.582508 -30.589045
LeftForeArm 6.762810 -0.000000 -1.194820
LeftHand -3.329773 -0.000000 -1.553423
LeftHandThumb1 -26.253704 0.000000 33.147579
RightShoulder -7.631442 -6.880679 -2.155577
RightArm 20.838109 29.239151 34.019280
RightForeArm -35.516619 -0.000000 6.135646
RightHand -5.609957 -0.000000 5.544586
RightHandThumb1 -24.326973 -0.000000 -32.862282
LeftUpLeg -5.429379 10.869624 7.822104
LeftLeg 8.642508 -0.000000 -0.000000
LeftFoot -18.741183 30.064449 -14.797599
LeftToeBase 24.413908 -0.000000 -0.000000
RightUpLeg -2.368675 -5.620490 1.539549
RightLeg 4.282809 -0.000000 -0.000000
RightFoot -23.149409 -25.450907 14.238223
RightToeBase 23.429315 -0.000000 -0.000000
135
root 17.568324 35.610666 -23.424115 144.395726 -88.106782 -140.686639
Spine -7.780567 0.215002 0.821587
Head 8.044072 0.059725 0.321214
LeftShoulder -9.487594 -28.480820 5.635162
LeftArm -1.032976 6.286118 -31.406649
LeftForeArm 6.763345 -0.000000 -1.180661
LeftHand -3.222843 -0.000000 -1.591887
LeftHandThumb1 -26.253704 0.000000 33.147579
RightShoulder -7.459393 -6.943379 -1.754614
RightArm 21.568352 29.244314 35.350428
RightForeArm -35.424629 -0.000000 6.059022
RightHand -5.311274 -0.000000 5.188225
RightHandThumb1 -24.326973 -0.000000 -32.862282
LeftUpLeg -5.615793 10.699983 7.953951
LeftLeg 9.323951 -0.000000 -0.000000
LeftFoot -18.498131 30.335797 -14.724466
LeftToeBase 24.388611 -0.000000 -0.000000
RightUpLeg -2.359199 -5.435435 1.640499
RightLeg 4.526560 -0.000000 -0.000000
RightFoot -23.170618 -25.525044 14.084894
RightToeBase 23.359627 -0.000000 -0.000000
136
root 17.632028 35.616944 -23.527987 146.920823 -88.072815 -143.330955
Spine -7.380267 0.335558 0.620036
Head 7.893309 0.008594 0.446176
LeftShoulder -9.301752 -28.505597 5.115185
LeftArm -1.149235 6.067541 -32.273118
LeftForeArm 6.760050 -0.000000 -1.149932
LeftHand -3.216687 -0.000000 -1.616791
LeftHandThumb1 -26.253704 0.000000 33.147579
RightShoulder -7.333002 -6.997317 -1.414902
RightArm 22.239399 29.169931 36.731282
RightForeArm -35.411754 0.000000 6.054555
RightHand -5.238983 -0.000000 5.069237
RightHandThumb1 -24.326973 -0.000000 -32.862282
LeftUpLeg -5.985009 10.449673 8.065626
LeftLeg 10.083554 -0.000000 -0.000000
LeftFoot -18.307575 30.684233 -14.689393
LeftToeBase 24.410932 -0.000000 -0.000000
RightUpLeg -2.476408 -5.275043 1.760333
RightLeg 4.779897 -0.000000 -0.000000
RightFoot -23.217914 -25.591870 13.975827
RightToeBase 23.311798 -0.000000 -0.000000
137
root 17.695457 35.623489 -23.636278 149.115358 -88.027759 -145.676817
Spine -6.933216 0.447241 0.409949
Head 7.688507 -0.086922 0.594415
LeftShoulder -9.110836 -28.478507 4.596278
LeftArm -1.259177 5.630647 -33.126255
LeftForeArm 6.752041 -0.000000 -1.097619
LeftHand -3.120104 -0.000000 -1.685677
LeftHandThumb1 -26.253704 0.000000 33.147579
RightShoulder -7.201504 -7.029103 -1.015923
RightArm 22.903497 28.984101 38.015028
RightForeArm -35.254819 -0.000000 6.022787
RightHand -5.169279 -0.000000 4.951145
RightHandThumb1 -24.326973 -0.000000 -32.862282
LeftUpLeg -6.323018 10.170073 8.200680
LeftLeg 10.849807 -0.000000 -0.000000
LeftFoot -18.066488 31.060351 -14.568513
LeftToeBase 24.522518 -0.000000 -0.000000
RightUpLeg -2.550009 -5.110734 1.892991
RightLeg 5.012547 -0.000000 -0.000000
RightFoot -23.241534 -25.661080 13.864481
RightToeBase 23.310107 -0.000000 -0.000000
138
root 17.751944 35.628981 -23.745991 151.865060 -87.930346 -148.698073
Spine -6.337418 0.576525 0.198187
Head 7.484585 -0.085390 0.786796
LeftShoulder -8.979046 -28.581397 4.152981
LeftArm -1.427290 5.294104 -34.013693
LeftForeArm 6.710731 -0.000000 -1.054166
LeftHand -3.223479 -0.000000 -1.666776
LeftHandThumb1 -26.253704 0.000000 33.147579
RightShoulder -6.918392 -6.897318 -0.686995
RightArm 23.205328 28.588885 39.175721
RightForeArm -34.762203 0.000000 6.156722
RightHand -5.366316 -0.000000 4.795380
RightHandThumb1 -24.326973 -0.000000 -32.862282
LeftUpLeg -6.488497 9.977265 8.348738
LeftLeg 11.552991 -0.000000 -0.000000
LeftFoot -17.815833 31.442283 -14.439777
LeftToeBase 24.561424 -0.000000 -0.000000
RightUpLeg -2.471469 -4.911028 2.013880
RightLeg 5.194340 -0.000000 -0.000000
RightFoot -23.245568 -25.733876 13.728721
RightToeBase 23.267893 -0.000000 -0.000000
139
root 17.816969 35.634875 -23.856940 153.484053 -87.883326 -150.422638
Spine -5.952740 0.665955 0.004277
Head 7.295957 -0.140779 0.933097
LeftShoulder -8.844298 -28.546214 3.659900
LeftArm -1.497670 5.003921 -34.868789
LeftForeArm 6.646984 0.000000 -1.033272
LeftHand -3.251009 -0.000000 -1.524069
LeftHandThumb1 -26.253704 0.000000 33.147579
RightShoulder -6.716083 -6.843077 -0.367226
RightArm 23.691769 28.341490 40.475777
RightForeArm -34.511675 -0.000000 6.161566
RightHand -5.387097 0.000000 4.544566
RightHandThumb1 -24.326973 -0.000000 -32.862282
LeftUpLeg -6.878539 9.642234 8.476161
LeftLeg 12.311197 -0.000000 -0.000000
LeftFoot -17.569245 31.921504 -14.244356
LeftToeBase 24.847165 -0.000000 -0.000000
RightUpLeg -2.564417 -4.801807 2.162720
RightLeg 5.372967 -0.000000 -0.000000
RightFoot -23.231566 -25.762041 13.642226
RightToeBase 23.163657 -0.000000 -0.000000
140
root 17.877511 35.640865 -23.965503 155.921816 -87.804409 -153.039139
Spine -5.487898 0.792554 -0.212099
Head 7.119403 -0.213130 1.076208
LeftShoulder -8.731162 -28.566187 3.196026
LeftArm -1.588569 4.674062 -35.728705
LeftForeArm 6.632785 -0.000000 -1.004103
LeftHand -3.202510 -0.000000 -1.551881
LeftHandThumb1 -26.253704 0.000000 33.147579
RightShoulder -6.476465 -6.755363 -0.054498
RightArm 24.086578 28.078186 41.761668
RightForeArm -34.313905 0.000000 6.226093
RightHand -5.444531 -0.000000 4.336024
RightHandThumb1 -24.326973 -0.000000 -32.862282
LeftUpLeg -7.158676 9.335089 8.583158
LeftLeg 13.020575 -0.000000 -0.000000
LeftFoot -17.316823 32.442290 -14.057685
LeftToeBase 25.055467 -0.000000 -0.000000
RightUpLeg -2.564646 -4.634047 2.275094
RightLeg 5.525542 -0.000000 -0.000000
RightFoot -23.216690 -25.804538 13.494654
RightToeBase 23.213879 -0.000000 -0.000000
141
root 17.937335 35.645505 -24.074466 157.258032 -87.738019 -154.563990
Spine -4.999481 0.902592 -0.389582
Head 6.909055 -0.238362 1.225457
LeftShoulder -8.638958 -28.505170 2.729202
LeftArm -1.589899 4.405686 -36.613189
LeftForeArm 6.668767 -0.000000 -0.997631
LeftHand -3.264805 -0.000000 -1.482605
LeftHandThumb1 -26.253704 0.000000 33.147579
RightShoulder -6.250598 -6.635566 0.230249
RightArm 24.419667 27.635419 42.975716
RightForeArm -34.017367 -0.000000 6.288514
RightHand -5.515834 0.000000 4.144399
RightHandThumb1 -24.326973 -0.000000 -32.862282
LeftUpLeg -7.428889 9.006509 8.703195
LeftLeg 13.711811 -0.000000 -0.000000
LeftFoot -17.044811 33.053226 -13.721497
LeftToeBase 25.385758 -0.000000 -0.000000
RightUpLeg -2.548333 -4.594699 2.416324
RightLeg 5.667072 -0.000000 -0.000000
RightFoot -23.181482 -25.779342 13.349274
RightToeBase 23.176562 -0.000000 -0.000000
142
root 17.998174 35.650134 -24.182658 157.645145 -87.761358 -155.161323
Spine -4.481765 0.900889 -0.553005
Head 6.677529 -0.272329 1.332713
LeftShoulder -8.513042 -28.564000 2.295911
LeftArm -1.780208 4.197401 -37.520948
LeftForeArm 6.695572 -0.000000 -0.884190
LeftHand -3.199057 -0.000000 -1.416715
LeftHandThumb1 -26.253704 0.000000 33.147579
RightShoulder -6.040178 -6.597369 0.524773
RightArm 24.983511 27.531407 44.393561
RightForeArm -34.091040 -0.000000 6.248875
RightHand -5.584519 0.000000 3.995042
RightHandThumb1 -24.326973 -0.000000 -32.862282
LeftUpLeg -7.705158 8.517138 8.814073
LeftLeg 14.400555 -0.000000 -0.000000
LeftFoot -16.736081 33.692538 -13.286243
LeftToeBase 25.695941 -0.000000 -0.000000
RightUpLeg -2.461219 -4.667030 2.553379
RightLeg 5.724947 -0.000000 -0.000000
RightFoot -23.117279 -25.764320 13.178952
RightToeBase 23.182389 -0.000000 -0.000000
143
root 18.055058 35.653855 -24.293653 158.847176 -87.703782 -156.557842
Spine -3.992462 1.027013 -0.747551
Head 6.452754 -0.348182 1.487500
LeftShoulder -8.439971 -28.566254 1.922795
LeftArm -1.833537 4.101615 -38.471688
LeftForeArm 6.690357 -0.000000 -0.855273
LeftHand -3.405416 -0.000000 -1.473711
LeftHandThumb1 -26.253704 0.000000 33.147579
RightShoulder -5.859728 -6.583550 0.879576
RightArm 25.404255 27.172662 45.603930
RightForeArm -34.008013 -0.000000 6.308083
RightHand -5.509972 0.000000 3.719942
RightHandThumb1 -24.326973 -0.000000 -32.862282
LeftUpLeg -7.973665 8.215553 8.909223
LeftLeg 15.071063 -0.000000 -0.000000
LeftFoot -16.430604 34.318939 -12.802256
LeftToeBase 25.872101 -0.000000 -0.000000
RightUpLeg -2.389232 -4.596207 2.696552
RightLeg 5.787701 -0.000000 -0.000000
RightFoot -23.090567 -25.786002 13.061425
RightToeBase 23.125428 -0.000000 -0.000000
